<svg xmlns="http://www.w3.org/2000/svg" width="1000" height="500" viewBox="0 0 1000 500">
  <defs>
    <marker id="arrow" viewBox="0 0 10 10" refX="5" refY="5" markerWidth="6" markerHeight="6" orient="auto">
      <path d="M0,0 L10,5 L0,10 Z" fill="black" />
    </marker>
  </defs>
  <rect x="50" y="50" width="250" height="100" fill="#d1e8ff" stroke="#000" />
  <rect x="350" y="50" width="300" height="100" fill="#d1e8ff" stroke="#000" />
  <rect x="700" y="50" width="250" height="100" fill="#d1e8ff" stroke="#000" />
  <rect x="275" y="200" width="300" height="100" fill="#d1e8ff" stroke="#000" />
  <rect x="575" y="200" width="300" height="100" fill="#d1e8ff" stroke="#000" />
  <rect x="350" y="350" width="350" height="100" fill="#d1e8ff" stroke="#000" />
  <text x="175" y="105" font-size="14" font-family="Arial" text-anchor="middle">Scan QR Code</text>
  <text x="500" y="95" font-size="14" font-family="Arial" text-anchor="middle">Verify via Dataset &amp; Ledger</text>
  <text x="825" y="95" font-size="14" font-family="Arial" text-anchor="middle">Analyze Packaging Image</text>
  <text x="425" y="255" font-size="14" font-family="Arial" text-anchor="middle">Log &amp; Update Dataset</text>
  <text x="725" y="248" font-size="14" font-family="Arial" text-anchor="middle">Generate Reports &amp; Demos</text>
  <text x="525" y="395" font-size="14" font-family="Arial" text-anchor="middle">Link Results to Docs &amp; Resume</text>
  <line x1="300" y1="100" x2="350" y2="100" stroke="#000" stroke-width="2" marker-end="url(#arrow)" />
  <line x1="650" y1="100" x2="700" y2="100" stroke="#000" stroke-width="2" marker-end="url(#arrow)" />
  <line x1="500" y1="150" x2="425" y2="200" stroke="#000" stroke-width="2" marker-end="url(#arrow)" />
  <line x1="500" y1="150" x2="725" y2="200" stroke="#000" stroke-width="2" marker-end="url(#arrow)" />
  <line x1="425" y1="300" x2="575" y2="350" stroke="#000" stroke-width="2" marker-end="url(#arrow)" />
  <line x1="725" y1="300" x2="575" y2="350" stroke="#000" stroke-width="2" marker-end="url(#arrow)" />
</svg>
